
<svg width="100" height="100" viewBox="0 0 100 100" fill="none" xmlns="http://www.w3.org/2000/svg">
  <path d="M70.5,30.7c-1.9-2.9-4.6-5.1-7.8-6.4c-3.2-1.3-6.7-1.6-10.1-0.9c-3.4,0.7-6.5,2.4-8.9,4.9c-2.4,2.5-4,5.7-4.6,9.2
   c-0.6,3.5-0.1,7.1,1.3,10.3c1.4,3.2,3.7,5.9,6.6,7.8c2.9,1.9,6.3,2.9,9.8,2.9c3.5,0,6.9-1,9.8-2.9c2.9-1.9,5.2-4.6,6.6-7.8
   c1.4-3.2,1.8-6.8,1.3-10.3C74.5,36.4,72.9,33.2,70.5,30.7z" fill="#FF5630"/>
  <path d="M70.5,30.7c-1.9-2.9-4.6-5.1-7.8-6.4c-3.2-1.3-6.7-1.6-10.1-0.9c-3.4,0.7-6.5,2.4-8.9,4.9c-2.4,2.5-4,5.7-4.6,9.2
   c-0.6,3.5-0.1,7.1,1.3,10.3c1.4,3.2,3.7,5.9,6.6,7.8c2.9,1.9,6.3,2.9,9.8,2.9c3.5,0,6.9-1,9.8-2.9c2.9-1.9,5.2-4.6,6.6-7.8
   c1.4-3.2,1.8-6.8,1.3-10.3C74.5,36.4,72.9,33.2,70.5,30.7z" fill="#FF5630"/>
</svg>
