
<svg width="100" height="100" viewBox="0 0 100 100" fill="none" xmlns="http://www.w3.org/2000/svg">
  <path d="M35.6,25.4c-1.7,0.5-3.2,1.5-4.4,2.8c-1.2,1.3-2,2.9-2.4,4.7c-0.4,1.8-0.3,3.6,0.3,5.3c0.6,1.7,1.6,3.2,3,4.4
   c1.4,1.2,3.1,1.9,4.9,2.1c1.8,0.2,3.6-0.2,5.2-1c1.6-0.8,2.9-2,3.8-3.5c0.9-1.5,1.4-3.2,1.3-5c0-1.8-0.6-3.5-1.6-4.9
   c-1-1.5-2.4-2.6-4-3.4C39.9,25.9,37.7,25.4,35.6,25.4z" fill="#FF7452"/>
  <path d="M63.8,25.4c-2.1,0-4.3,0.5-6.1,1.5c-1.6,0.8-3,1.9-4,3.4c-1,1.4-1.6,3.1-1.6,4.9c-0.1,1.8,0.4,3.5,1.3,5
   c0.9,1.5,2.2,2.7,3.8,3.5c1.6,0.8,3.4,1.2,5.2,1c1.8-0.2,3.5-0.9,4.9-2.1c1.4-1.2,2.4-2.7,3-4.4c0.6-1.7,0.7-3.6,0.3-5.3
   c-0.4-1.8-1.2-3.4-2.4-4.7C67,26.9,65.5,25.9,63.8,25.4z" fill="#FF7452"/>
  <path d="M30.8,40.6c-1.4,0.1-2.8,0.6-4,1.4c-1.2,0.8-2.1,1.9-2.7,3.1c-0.6,1.3-0.9,2.7-0.8,4.1c0.1,1.4,0.5,2.8,1.3,4
   c0.8,1.2,1.9,2.1,3.1,2.7c1.3,0.6,2.7,0.9,4.1,0.8c1.4-0.1,2.8-0.5,4-1.3c1.2-0.8,2.1-1.9,2.7-3.1c0.6-1.3,0.9-2.7,0.8-4.1
   c-0.1-1.4-0.5-2.8-1.3-4c-0.8-1.2-1.9-2.1-3.1-2.7C33.6,40.8,32.2,40.5,30.8,40.6z" fill="#FF7452"/>
  <path d="M68.6,40.6c-1.4-0.1-2.8,0.2-4.1,0.8c-1.3,0.6-2.3,1.5-3.1,2.7c-0.8,1.2-1.2,2.6-1.3,4c-0.1,1.4,0.2,2.8,0.8,4.1
   c0.6,1.3,1.5,2.3,2.7,3.1c1.2,0.8,2.6,1.2,4,1.3c1.4,0.1,2.8-0.2,4.1-0.8c1.3-0.6,2.3-1.5,3.1-2.7c0.8-1.2,1.2-2.6,1.3-4
   c0.1-1.4-0.2-2.8-0.8-4.1c-0.6-1.3-1.5-2.3-2.7-3.1C71.4,41.2,70,40.7,68.6,40.6z" fill="#FF7452"/>
  <path d="M27.5,55.7c-1.1,0.1-2.1,0.4-3.1,1c-0.9,0.6-1.7,1.4-2.2,2.4c-0.5,1-0.7,2.1-0.7,3.2c0,1.1,0.4,2.2,1,3.1
   c0.6,0.9,1.4,1.7,2.4,2.2c1,0.5,2.1,0.7,3.2,0.7c1.1,0,2.2-0.3,3.1-0.9c0.9-0.6,1.7-1.4,2.2-2.3c0.5-1,0.7-2.1,0.7-3.2
   c0-1.1-0.3-2.2-0.9-3.1c-0.6-0.9-1.4-1.7-2.3-2.2C29.7,56,28.6,55.7,27.5,55.7z" fill="#FF7452"/>
  <path d="M71.9,55.7c-1.1-0.1-2.2,0.1-3.2,0.6c-1,0.5-1.8,1.3-2.3,2.2c-0.6,0.9-0.9,2-0.9,3.1c0,1.1,0.2,2.2,0.7,3.2
   c0.5,1,1.3,1.8,2.2,2.3c0.9,0.6,2,0.9,3.1,0.9c1.1,0,2.2-0.2,3.2-0.7c1-0.5,1.8-1.3,2.4-2.2c0.6-0.9,0.9-2,1-3.1
   c0-1.1-0.2-2.2-0.7-3.2c-0.5-1-1.3-1.8-2.2-2.4C74,56.1,73,55.8,71.9,55.7z" fill="#FF7452"/>
  <path d="M23.8,71.2c-0.9,0-1.8,0.3-2.5,0.8c-0.7,0.5-1.3,1.2-1.7,2c-0.4,0.8-0.5,1.7-0.4,2.6c0.1,0.9,0.4,1.7,0.9,2.4
   c0.5,0.7,1.2,1.3,2,1.7c0.8,0.4,1.7,0.5,2.6,0.4c0.9-0.1,1.7-0.4,2.4-0.9c0.7-0.5,1.3-1.2,1.7-2c0.4-0.8,0.5-1.7,0.4-2.6
   c-0.1-0.9-0.4-1.7-0.9-2.4c-0.5-0.7-1.2-1.3-2-1.7C25.6,71.3,24.7,71.2,23.8,71.2z" fill="#FF7452"/>
  <path d="M75.6,71.2c-0.9,0-1.8,0.1-2.6,0.5c-0.8,0.4-1.5,1-2,1.7c-0.5,0.7-0.8,1.5-0.9,2.4c-0.1,0.9,0,1.8,0.4,2.6
   c0.4,0.8,1,1.5,1.7,2c0.7,0.5,1.5,0.8,2.4,0.9c0.9,0.1,1.8,0,2.6-0.4c0.8-0.4,1.5-1,2-1.7c0.5-0.7,0.8-1.5,0.9-2.4
   c0.1-0.9,0-1.8-0.4-2.6c-0.4-0.8-1-1.5-1.7-2C77.4,71.5,76.5,71.2,75.6,71.2z" fill="#FF7452"/>
  <path d="M49.7,17.5c-0.9,0-1.8,0.2-2.6,0.7c-0.8,0.5-1.4,1.1-1.8,1.9c-0.4,0.8-0.5,1.7-0.5,2.6c0,0.9,0.3,1.8,0.7,2.6
   c0.5,0.8,1.1,1.4,1.9,1.8c0.8,0.4,1.7,0.5,2.6,0.5c0.9,0,1.8-0.3,2.6-0.7c0.8-0.5,1.4-1.1,1.8-1.9c0.4-0.8,0.5-1.7,0.5-2.6
   c0-0.9-0.3-1.8-0.7-2.6c-0.5-0.8-1.1-1.4-1.9-1.8C51.5,17.6,50.6,17.5,49.7,17.5z" fill="#FF7452"/>
  <line x1="49.7" y1="28" x2="49.7" y2="50" stroke="#FF7452" stroke-width="2" stroke-linecap="round"/>
</svg>
